<svg version="1.0" xmlns="http://www.w3.org/2000/svg"
     width="1046.000000pt" height="1046.000000pt" viewBox="0 0 1046.000000 1046.000000"
     preserveAspectRatio="xMidYMid meet">
    <g transform="translate(0.000000,1046.000000) scale(0.100000,-0.100000)"
       fill="#ffffff" stroke="none">
        <path d="M1792 8178 c-6 -18 -33 -109 -62 -203 -29 -93 -54 -177 -55 -185 -2
-8 -4 -16 -5 -17 -2 -2 -3 -6 -4 -10 -1 -5 -15 -48 -30 -98 -16 -49 -29 -94
-30 -100 -1 -5 -17 -57 -35 -115 -17 -58 -43 -143 -57 -190 -14 -47 -31 -103
-39 -125 -13 -40 -85 -280 -90 -300 -1 -5 -5 -17 -8 -25 -6 -14 -53 -167 -61
-200 -2 -8 -11 -37 -20 -65 -12 -39 -42 -141 -51 -175 -1 -3 -4 -12 -8 -20 -8
-20 -67 -220 -73 -245 -2 -11 -8 -31 -13 -45 -11 -27 -61 -192 -65 -212 -2 -7
-6 -20 -9 -28 -11 -29 -37 -115 -40 -135 -2 -11 -7 -28 -11 -37 -4 -9 -9 -22
-10 -30 -2 -7 -5 -20 -9 -28 -3 -8 -17 -53 -31 -100 -14 -47 -40 -132 -58
-190 -17 -58 -33 -107 -33 -110 -1 -3 -5 -18 -9 -35 -4 -16 -11 -39 -16 -50
-7 -17 -22 -67 -95 -315 -8 -25 -28 -90 -45 -145 -16 -55 -32 -107 -34 -115
-6 -25 -187 -624 -193 -640 -3 -8 -7 -20 -9 -27 -1 -7 -11 -41 -22 -75 -11
-35 -34 -110 -52 -168 -17 -58 -36 -121 -42 -140 -6 -19 -11 -37 -11 -40 0 -3
-8 -30 -19 -60 -11 -30 -22 -66 -24 -79 -3 -13 -11 -39 -19 -58 -8 -19 -14
-37 -13 -41 1 -4 -7 -34 -17 -67 -11 -33 -20 -62 -20 -65 -5 -20 -37 -128 -42
-140 -3 -8 -7 -19 -9 -25 -1 -5 -25 -84 -53 -175 -29 -91 -53 -172 -55 -180
-2 -9 -16 -55 -31 -103 -14 -47 -25 -88 -24 -89 1 -2 -6 -21 -15 -42 -9 -22
-14 -42 -10 -45 5 -6 4443 -10 4455 -4 6 2 2 21 -40 176 -48 176 -63 233 -67
249 -5 22 -6 26 -39 153 -15 55 -29 107 -32 115 -3 8 -8 24 -10 35 -6 26 -9
37 -16 55 -8 22 -38 139 -43 168 -3 14 -7 29 -10 34 -3 4 -7 16 -9 25 -5 26
-53 210 -70 268 -8 28 -37 133 -64 235 -28 102 -60 221 -71 265 -12 44 -23 87
-25 95 -2 8 -4 15 -5 15 -1 0 -3 7 -5 15 -5 23 -79 298 -94 348 -5 17 -8 32
-6 32 3 0 0 12 -6 28 -17 42 -47 162 -42 162 3 0 1 6 -5 13 -6 6 -13 30 -17
52 -4 22 -10 44 -13 50 -3 5 -7 16 -8 25 -3 20 -34 141 -41 160 -3 8 -7 22 -9
30 -1 8 -7 31 -13 50 -24 80 -51 176 -54 195 -2 11 -9 40 -16 65 -7 25 -15 52
-16 60 -2 8 -11 42 -20 75 -9 33 -18 65 -19 70 -2 6 -6 17 -9 25 -5 14 -18 63
-22 85 -1 6 -3 12 -5 15 -1 3 -4 14 -6 25 -2 11 -14 61 -28 110 -57 203 -188
692 -193 715 -2 14 -8 34 -13 45 -5 11 -11 31 -13 45 -6 26 -38 149 -56 210
-6 19 -13 46 -16 60 -14 63 -51 196 -58 208 -5 6 -6 12 -3 12 2 0 0 15 -5 33
-12 37 -49 175 -54 197 -2 8 -20 76 -40 150 -21 73 -38 139 -40 145 -1 5 -5
17 -8 25 -3 8 -8 26 -10 40 -3 14 -8 34 -11 45 -3 11 -10 37 -16 58 -5 20 -15
54 -21 75 -5 20 -12 46 -14 57 -2 11 -16 61 -30 110 -14 50 -27 99 -29 110 -3
20 -12 20 -539 23 l-536 2 -9 -32z"/>
        <path d="M5972 5240 c0 -1633 3 -2971 7 -2971 3 -1 1009 -2 2236 -3 l2230 -1
-2 2960 c-1 1628 -2 2966 -2 2973 -1 9 -455 12 -2235 12 l-2234 0 0 -2970z"/>
    </g>
</svg>
