<svg width="23" height="23" viewBox="0 0 23 23" fill="none" xmlns="http://www.w3.org/2000/svg">
<path d="M8.1 0H5.15L0 5.15V8.1L1.07 9.16L9.16 1.07L8.1 0Z" fill="#161616"/>
<path d="M22.31 14.21V17.16L17.16 22.31H14.21L13.15 21.24L21.24 13.15L22.31 14.21Z" fill="#161616"/>
<path d="M0 14.21V17.16L5.15 22.31H8.1L9.16 21.24L1.07 13.15L0 14.21Z" fill="#161616"/>
<path d="M14.21 0H17.16L22.31 5.15V8.1L21.24 9.16L13.15 1.07L14.21 0Z" fill="#161616"/>
<path d="M16.82 9.88999L12.42 5.48999H9.9L5.5 9.89999V12.41L9.9 16.81L12.42 16.82L16.82 12.42V9.88999Z" fill="#161616"/>
</svg>
